<svg xmlns="http://www.w3.org/2000/svg" version="1.1" xmlns:xlink="http://www.w3.org/1999/xlink" xmlns:svgjs="http://svgjs.dev/svgjs" viewBox="0 0 800 800"><defs><linearGradient x1="50%" y1="0%" x2="50%" y2="100%" id="nnneon-grad"><stop stop-color="rgb(9, 9, 121)" stop-opacity="1" offset="0%"></stop><stop stop-color="rgb(250, 0, 255)" stop-opacity="1" offset="100%"></stop></linearGradient><filter id="nnneon-filter" x="-100%" y="-100%" width="400%" height="400%" filterUnits="objectBoundingBox" primitiveUnits="userSpaceOnUse" color-interpolation-filters="sRGB">
	<feGaussianBlur stdDeviation="17 8" x="0%" y="0%" width="100%" height="100%" in="SourceGraphic" edgeMode="none" result="blur"></feGaussianBlur></filter><filter id="nnneon-filter2" x="-100%" y="-100%" width="400%" height="400%" filterUnits="objectBoundingBox" primitiveUnits="userSpaceOnUse" color-interpolation-filters="sRGB">
	<feGaussianBlur stdDeviation="10 17" x="0%" y="0%" width="100%" height="100%" in="SourceGraphic" edgeMode="none" result="blur"></feGaussianBlur></filter></defs><g stroke-width="16" stroke="url(#nnneon-grad)" fill="none" transform="rotate(210, 400, 400)"><path d="M388.4530107167675 233.46125231926777C395.59828768523175 229.33666774729716 404.40171231476825 229.33666774729716 411.5469892832325 233.46240701819613L538.4530203016707 306.7315181170911C545.5982972701349 310.8561026890618 550.0000095849032 318.48057971278024 550.0000095849032 326.7309035556499V473.2691257534399C550.0000095849032 481.5194495963096 545.5982972701349 489.14392662002797 538.4530203016707 493.26966589092694L411.5469892832325 566.538776989822C404.40171231476825 570.6633615617925 395.59828768523175 570.6633615617925 388.4530107167675 566.5376222908938L261.54697969832927 493.26851119199864C254.401702729865 489.14392662002797 249.99999041509682 481.5194495963096 249.99999041509682 473.2691257534399V326.7309035556499C249.99999041509682 318.48057971278024 254.401702729865 310.8561026890618 261.54697969832927 306.7303634181629L388.4530107167675 233.46125231926777Z " filter="url(#nnneon-filter)"></path><path d="M394.4530107167675 233.46125231926777C401.59828768523175 229.33666774729716 410.40171231476825 229.33666774729716 417.5469892832325 233.46240701819613L544.4530203016707 306.7315181170911C551.5982972701349 310.8561026890618 556.0000095849032 318.48057971278024 556.0000095849032 326.7309035556499V473.2691257534399C556.0000095849032 481.5194495963096 551.5982972701349 489.14392662002797 544.4530203016707 493.26966589092694L417.5469892832325 566.538776989822C410.40171231476825 570.6633615617925 401.59828768523175 570.6633615617925 394.4530107167675 566.5376222908938L267.54697969832927 493.26851119199864C260.401702729865 489.14392662002797 255.99999041509682 481.5194495963096 255.99999041509682 473.2691257534399V326.7309035556499C255.99999041509682 318.48057971278024 260.401702729865 310.8561026890618 267.54697969832927 306.7303634181629L394.4530107167675 233.46125231926777Z " filter="url(#nnneon-filter2)" opacity="0.3"></path><path d="M382.4530107167675 233.46125231926777C389.59828768523175 229.33666774729716 398.40171231476825 229.33666774729716 405.5469892832325 233.46240701819613L532.4530203016707 306.7315181170911C539.5982972701349 310.8561026890618 544.0000095849032 318.48057971278024 544.0000095849032 326.7309035556499V473.2691257534399C544.0000095849032 481.5194495963096 539.5982972701349 489.14392662002797 532.4530203016707 493.26966589092694L405.5469892832325 566.538776989822C398.40171231476825 570.6633615617925 389.59828768523175 570.6633615617925 382.4530107167675 566.5376222908938L255.54697969832927 493.26851119199864C248.401702729865 489.14392662002797 243.99999041509682 481.5194495963096 243.99999041509682 473.2691257534399V326.7309035556499C243.99999041509682 318.48057971278024 248.401702729865 310.8561026890618 255.54697969832927 306.7303634181629L382.4530107167675 233.46125231926777Z " filter="url(#nnneon-filter2)" opacity="0.3"></path><path d="M388.4530107167675 233.46125231926777C395.59828768523175 229.33666774729716 404.40171231476825 229.33666774729716 411.5469892832325 233.46240701819613L538.4530203016707 306.7315181170911C545.5982972701349 310.8561026890618 550.0000095849032 318.48057971278024 550.0000095849032 326.7309035556499V473.2691257534399C550.0000095849032 481.5194495963096 545.5982972701349 489.14392662002797 538.4530203016707 493.26966589092694L411.5469892832325 566.538776989822C404.40171231476825 570.6633615617925 395.59828768523175 570.6633615617925 388.4530107167675 566.5376222908938L261.54697969832927 493.26851119199864C254.401702729865 489.14392662002797 249.99999041509682 481.5194495963096 249.99999041509682 473.2691257534399V326.7309035556499C249.99999041509682 318.48057971278024 254.401702729865 310.8561026890618 261.54697969832927 306.7303634181629L388.4530107167675 233.46125231926777Z "></path></g></svg>
